<!-- Generated by IcoMoon.io -->
<svg version="1.1" xmlns="http://www.w3.org/2000/svg" width="768" height="768" viewBox="0 0 768 768">
<title></title>
<g id="icomoon-ignore">
</g>
<path fill="#000" d="M460.064 498.88v-39.488c-12.768 8.576-25.216 12.8-37.312 12.8-5.696 0-12.064-1.824-19.2-5.312-4.288-2.88-6.752-6.048-7.488-9.632-2.112-4.256-3.2-13.504-3.2-27.744v-62.912h58.688v-39.456h-58.688v-62.944h-34.112c-2.848 14.944-5.696 25.6-8.544 32-3.52 7.808-9.216 14.944-17.056 21.312-7.84 6.432-16 11.040-24.544 13.888v35.232h26.656v86.4c0 9.952 1.408 18.432 4.288 25.568 2.112 5.696 6.368 11.36 12.8 17.056 4.928 4.992 12.064 9.248 21.312 12.8 11.36 2.88 21.312 4.256 29.888 4.256 9.952 0 19.2-1.056 27.712-3.2 9.984-2.144 19.584-5.696 28.8-10.624z"></path>
<path fill="#000" d="M384 672c-158.816 0-288-129.184-288-288s129.184-288 288-288 288 129.184 288 288-129.184 288-288 288zM384 160c-123.488 0-224 100.512-224 224s100.512 224 224 224 224-100.512 224-224-100.512-224-224-224z"></path>
</svg>
