<!-- Generated by IcoMoon.io -->
<svg version="1.1" xmlns="http://www.w3.org/2000/svg" width="768" height="768" viewBox="0 0 768 768">
<title></title>
<g id="icomoon-ignore">
</g>
<path fill="#000" d="M462.816 292.512c-16.384 0-31.616 7.616-45.76 22.88-9.952 9.984-16 21.696-18.112 35.232 6.624-4.192 12.384-6.272 17.312-6.272 5.088 0 9.28 2.24 12.576 6.784 6.368 8.896 6.016 20.128-1.056 33.632-15.648 29.888-27.072 44.8-34.112 44.8-4.992 0-11.392-16.704-19.264-50.144-1.376-4.96-2.816-12.096-4.256-21.344-1.44-9.216-2.816-17.216-4.256-24-1.44-6.752-3.552-13.696-6.4-20.768s-6.4-12.288-10.656-15.456c-3.008-2.208-6.464-3.328-10.464-3.328-1.76 0-3.584 0.224-5.536 0.672-9.248 2.144-19.936 7.84-32 17.088-12.128 9.216-22.048 18.112-29.888 26.656l-10.688 12.8 9.632 12.768c1.44-1.408 3.2-2.848 5.312-4.256 2.112-1.44 6.048-3.232 11.744-5.344 2.432-0.896 4.512-1.376 6.112-1.376 2.208 0 3.712 0.8 4.576 2.432 2.112 2.848 8.672 22.944 19.68 60.288 11.072 37.344 17.984 58.848 20.8 64.544 4.992 9.952 11.744 17.6 20.256 22.944 4.16 2.56 8.672 3.872 13.664 3.872 5.28 0 11.072-1.504 17.28-4.448 19.232-12.768 41.248-34.112 66.144-64 24.896-29.856 40.16-61.504 45.856-94.912 4.992-29.152-3.52-45.888-25.568-50.144-4.416-1.12-8.704-1.6-12.928-1.6z"></path>
<path fill="#000" d="M384 672c-158.816 0-288-129.184-288-288s129.184-288 288-288 288 129.184 288 288-129.184 288-288 288zM384 160c-123.488 0-224 100.512-224 224s100.512 224 224 224 224-100.512 224-224-100.512-224-224-224z"></path>
</svg>
