<?xml version="1.0" standalone="no"?>
<!DOCTYPE svg PUBLIC "-//W3C//DTD SVG 20010904//EN"
 "http://www.w3.org/TR/2001/REC-SVG-20010904/DTD/svg10.dtd">
<svg version="1.0" xmlns="http://www.w3.org/2000/svg"
 width="1408.000000pt" height="1408.000000pt" viewBox="0 0 1408.000000 1408.000000"
 preserveAspectRatio="xMidYMid meet">
<metadata>
Created by potrace 1.11, written by Peter Selinger 2001-2013
</metadata>
<g transform="translate(0.000000,1408.000000) scale(0.100000,-0.100000)"
fill="#000000" stroke="none">
<path d="M6955 14072 c-135 -28 -331 -143 -490 -287 -18 -16 -46 -42 -61 -56
-221 -200 -510 -586 -729 -972 -30 -53 -55 -101 -55 -106 0 -5 -4 -11 -8 -13
-9 -4 -148 -277 -207 -407 -23 -53 -56 -125 -72 -161 -17 -36 -55 -128 -86
-205 -31 -77 -61 -153 -68 -170 -7 -16 -13 -34 -15 -40 -1 -5 -18 -53 -37
-105 -39 -107 -116 -337 -140 -420 -9 -30 -28 -95 -43 -145 -15 -49 -29 -94
-30 -100 -4 -18 -53 -200 -63 -233 -5 -18 -10 -36 -11 -40 0 -4 -4 -23 -9 -42
-12 -47 -52 -220 -57 -244 -4 -24 -44 -213 -50 -241 -2 -11 -7 -35 -10 -54 -7
-40 -9 -54 -29 -151 -8 -41 -17 -91 -19 -110 -3 -19 -9 -57 -14 -85 -6 -27
-13 -74 -17 -104 -4 -30 -8 -62 -10 -71 -2 -9 -6 -41 -10 -71 -3 -30 -8 -61
-10 -69 -2 -8 -7 -40 -10 -70 -3 -30 -8 -66 -10 -80 -3 -14 -7 -47 -10 -75 -3
-27 -7 -63 -9 -80 -3 -16 -7 -66 -11 -110 -4 -44 -9 -89 -11 -100 -4 -21 -14
-141 -29 -365 -4 -52 -8 -113 -10 -135 -13 -157 -20 -495 -20 -1015 0 -530 4
-707 20 -965 13 -207 17 -266 21 -315 3 -30 7 -77 9 -105 9 -122 17 -211 20
-239 2 -17 7 -60 10 -96 3 -36 8 -78 10 -95 2 -16 6 -57 10 -90 3 -33 8 -76
11 -95 4 -19 8 -55 11 -80 4 -50 10 -85 12 -85 1 0 4 -25 6 -55 2 -31 6 -69
10 -85 3 -17 9 -59 15 -95 24 -162 34 -225 51 -325 6 -33 13 -72 14 -87 2 -15
9 -53 15 -85 5 -32 12 -71 15 -88 3 -16 8 -41 11 -55 3 -14 8 -36 10 -50 3
-14 12 -61 20 -105 8 -44 17 -91 20 -105 2 -14 7 -36 10 -50 3 -14 6 -26 6
-27 0 -2 4 -22 10 -45 5 -24 12 -54 14 -68 3 -14 9 -41 14 -60 5 -19 12 -48
14 -65 9 -48 12 -63 46 -200 40 -165 37 -149 55 -225 9 -36 18 -73 20 -83 2
-10 7 -27 10 -37 3 -10 8 -27 10 -37 2 -10 27 -99 55 -198 28 -99 53 -189 55
-199 2 -10 9 -33 14 -50 5 -17 19 -65 31 -106 12 -41 26 -84 30 -95 4 -11 18
-54 30 -95 26 -85 167 -513 191 -575 4 -11 16 -46 28 -77 46 -128 62 -169 116
-313 31 -82 63 -163 70 -180 7 -16 43 -104 80 -195 37 -91 75 -183 85 -205 10
-22 41 -94 70 -160 29 -66 73 -162 96 -213 24 -52 44 -95 44 -97 0 -9 146
-304 169 -342 l26 -43 836 0 835 0 37 66 c20 37 37 71 37 75 0 5 4 9 10 9 5 0
9 3 8 8 -2 7 18 53 83 185 21 43 39 81 40 85 1 4 14 34 29 67 62 135 85 188
157 355 82 191 218 529 264 655 16 44 33 89 38 100 5 11 14 34 19 50 6 17 29
82 52 145 50 141 181 529 185 550 2 8 19 65 38 125 31 94 91 296 103 345 2 8
13 49 25 90 11 41 22 80 23 85 1 6 5 16 9 23 5 6 6 12 3 12 -3 0 -1 11 4 25 5
14 12 36 15 48 2 12 32 130 65 262 33 132 63 254 65 270 3 17 8 38 11 47 5 17
10 42 20 92 2 16 7 33 9 36 3 4 7 25 11 46 3 22 12 66 19 99 13 56 23 104 31
150 2 11 6 32 9 48 3 15 7 37 9 50 3 12 12 58 21 102 9 44 18 94 20 110 2 17
7 41 9 55 3 14 7 41 10 60 3 19 8 49 11 65 12 65 24 142 30 185 3 25 10 68 15
95 5 28 12 73 15 100 3 28 7 61 10 75 3 14 7 45 10 70 3 25 7 56 10 70 2 14 7
50 10 80 3 30 8 69 10 85 2 17 7 57 11 90 3 33 8 76 10 95 2 19 6 60 9 90 4
30 8 71 10 90 2 19 6 69 9 110 4 41 8 95 11 120 6 51 13 143 20 273 3 48 7
115 10 150 15 233 20 456 20 1002 -1 341 -4 681 -8 755 -9 189 -16 294 -22
375 -3 39 -8 95 -10 125 -7 95 -15 195 -19 227 -3 17 -7 64 -10 105 -4 40 -9
84 -11 98 -3 14 -7 45 -9 70 -10 86 -17 145 -21 170 -2 14 -9 61 -15 105 -6
44 -12 91 -15 105 -4 28 -12 81 -20 138 -3 20 -8 48 -10 62 -3 14 -7 43 -11
65 -3 22 -7 47 -9 55 -3 8 -11 53 -20 100 -17 97 -22 123 -32 165 -3 17 -7 39
-8 50 -1 11 -7 38 -13 60 -6 22 -14 56 -17 75 -3 19 -24 109 -46 200 -22 91
-42 175 -45 187 -2 12 -8 33 -13 45 -5 13 -9 26 -10 31 0 4 -1 8 -2 10 0 1 -2
11 -4 22 -2 11 -27 99 -55 195 -28 96 -52 180 -53 185 -2 6 -5 15 -8 20 -3 6
-12 33 -19 60 -7 28 -17 56 -23 63 -5 6 -7 12 -4 12 4 0 -4 28 -17 63 -13 34
-35 96 -49 137 -29 86 -53 151 -73 197 -8 17 -14 36 -14 42 0 6 -4 19 -10 29
-5 9 -15 33 -23 52 -57 140 -82 200 -95 230 -9 19 -16 37 -17 40 -13 43 -214
450 -284 574 -33 60 -61 113 -61 118 0 4 -4 8 -10 8 -5 0 -10 5 -10 10 0 9
-47 89 -128 217 -4 6 -34 50 -67 98 -33 48 -71 103 -84 123 -13 20 -29 42 -35
48 -6 6 -22 26 -36 44 -103 137 -159 200 -299 340 -119 119 -201 188 -317 268
-53 36 -175 94 -238 112 -57 16 -163 22 -211 12z m-148 -4152 c0 -1953 3
-3553 6 -3557 5 -5 157 -6 422 -3 l40 0 -1 3555 c0 1955 2 3555 6 3555 9 0
174 -171 241 -250 159 -185 380 -510 490 -718 9 -18 22 -38 27 -45 19 -23 263
-512 268 -537 0 -3 9 -23 18 -45 10 -22 26 -58 36 -80 9 -22 34 -83 55 -135
20 -52 44 -107 52 -122 8 -16 12 -28 8 -28 -3 0 1 -12 8 -27 8 -16 42 -111 77
-213 34 -102 65 -192 68 -200 3 -8 6 -17 7 -20 0 -3 8 -30 18 -60 9 -30 16
-58 16 -63 1 -4 7 -23 15 -42 8 -19 13 -35 11 -35 -1 0 4 -21 12 -47 21 -65
76 -272 87 -328 3 -11 19 -78 36 -150 30 -122 64 -283 76 -350 2 -16 7 -37 9
-45 3 -8 12 -55 21 -105 15 -87 19 -114 28 -172 2 -16 9 -55 15 -88 5 -33 13
-80 16 -105 11 -83 15 -116 20 -139 4 -21 14 -98 20 -161 2 -14 6 -45 9 -70 3
-25 8 -65 10 -90 13 -116 17 -158 21 -195 4 -36 7 -69 20 -245 2 -30 7 -95 10
-145 36 -498 36 -1318 0 -1909 -4 -56 -8 -128 -10 -161 -2 -33 -7 -94 -10
-135 -4 -41 -9 -102 -11 -135 -3 -33 -7 -76 -9 -95 -2 -19 -6 -69 -10 -110 -3
-41 -8 -88 -10 -105 -1 -16 -6 -59 -9 -95 -4 -36 -8 -76 -11 -90 -2 -14 -6
-50 -10 -81 -3 -31 -7 -65 -9 -75 -2 -11 -7 -46 -10 -79 -4 -33 -9 -71 -11
-85 -2 -14 -6 -47 -10 -75 -3 -27 -8 -61 -10 -75 -2 -14 -9 -61 -15 -105 -7
-44 -13 -87 -15 -95 -2 -8 -6 -35 -9 -60 -3 -25 -8 -56 -11 -70 -3 -14 -7 -41
-10 -60 -2 -19 -7 -46 -9 -60 -3 -13 -8 -42 -12 -64 -3 -22 -7 -43 -9 -46 -1
-3 -6 -27 -9 -55 -4 -27 -9 -57 -11 -65 -2 -8 -7 -28 -10 -45 -3 -16 -8 -43
-11 -60 -4 -16 -7 -36 -7 -42 -1 -19 -15 -16 -27 6 -5 11 -16 25 -23 33 -7 7
-35 40 -62 73 -129 154 -174 203 -310 340 -148 147 -191 187 -325 299 -58 48
-118 99 -134 112 -15 13 -30 24 -32 24 -2 0 -32 23 -66 50 -34 28 -67 50 -74
50 -7 0 -14 4 -16 9 -6 16 -314 219 -329 217 -4 -1 -15 6 -25 15 -11 9 -39 27
-64 40 -25 13 -47 26 -50 29 -3 3 -43 25 -90 49 -47 24 -92 50 -101 57 -9 8
-19 11 -22 7 -4 -3 -7 -1 -7 5 0 7 -5 12 -10 12 -20 0 -346 208 -412 263 -12
9 -25 17 -29 17 -4 0 -14 6 -21 13 -7 7 -42 35 -78 61 -80 61 -141 108 -156
121 -6 6 -35 30 -64 55 -29 25 -73 63 -98 85 -63 55 -302 293 -332 331 -46 57
-180 219 -194 234 -8 8 -48 65 -90 125 -42 61 -79 115 -83 121 -73 101 -242
425 -301 574 -16 41 -33 84 -37 95 -5 11 -9 22 -10 25 -1 3 -4 12 -8 20 -6 17
-30 91 -33 103 -1 4 -2 8 -4 10 -1 1 -3 9 -5 17 -2 8 -13 49 -25 90 -26 94
-30 110 -35 135 -2 11 -6 30 -8 41 -6 23 -17 85 -22 119 -2 11 -7 45 -11 75
-14 93 -9 319 11 479 2 20 7 59 10 87 3 28 7 69 10 90 2 21 7 62 10 89 3 28 7
61 10 75 3 13 7 49 10 80 3 31 7 64 9 75 6 33 16 98 21 140 3 22 7 51 10 65 3
14 7 41 10 60 3 19 7 46 10 60 2 13 7 42 10 65 3 22 8 47 10 55 2 8 7 31 10
50 3 19 17 91 30 160 25 124 30 149 40 193 3 12 8 37 11 56 3 19 10 45 15 58
5 13 6 23 3 23 -3 0 -2 6 2 12 5 7 9 19 10 28 2 18 32 139 70 276 14 55 28
106 29 114 2 8 4 16 5 18 2 1 3 5 4 10 18 68 55 189 72 235 8 20 11 37 9 37
-3 0 0 10 7 23 6 12 13 27 14 32 2 12 62 194 71 215 3 8 7 17 8 20 5 13 18 47
25 65 5 11 23 58 40 105 18 47 37 91 43 99 7 8 10 15 8 15 -6 2 9 47 37 106
14 30 26 60 27 65 5 23 191 404 243 496 10 19 34 61 52 93 82 148 277 451 322
500 10 11 18 23 18 27 0 5 11 19 25 33 14 14 25 28 25 32 0 4 15 23 33 43 17
21 48 57 67 81 43 53 272 290 281 290 4 0 6 -1598 6 -3550z m-1817 -2852 c107
-178 351 -519 448 -626 16 -18 47 -54 68 -80 43 -53 354 -365 425 -427 25 -22
68 -58 94 -80 27 -22 53 -44 60 -50 6 -5 31 -26 55 -45 25 -19 50 -38 55 -42
6 -5 28 -22 50 -38 22 -16 45 -34 51 -39 25 -21 263 -180 309 -206 28 -16 52
-32 55 -35 3 -3 14 -10 25 -16 11 -6 90 -49 175 -96 85 -47 198 -111 250 -143
52 -32 104 -63 115 -69 84 -48 396 -267 511 -359 20 -16 139 -115 189 -157 40
-33 299 -293 351 -350 59 -67 164 -204 224 -294 72 -107 173 -305 172 -336 -1
-14 -17 -90 -37 -170 -20 -80 -38 -152 -40 -160 -6 -26 -63 -241 -90 -335 -14
-49 -27 -99 -30 -109 -2 -10 -9 -33 -15 -51 -6 -18 -12 -41 -15 -51 -7 -37
-57 -199 -66 -216 -5 -10 -9 -23 -9 -30 0 -7 -13 -53 -28 -102 l-28 -89 -77
114 c-69 104 -129 183 -220 294 -56 68 -264 278 -323 325 -31 25 -63 52 -73
61 -48 45 -247 189 -261 189 -6 0 -10 4 -10 9 0 5 -12 15 -27 22 -72 36 -241
139 -400 242 -57 37 -107 67 -112 67 -5 0 -11 4 -13 8 -1 4 -43 37 -93 72 -49
36 -92 67 -95 70 -3 3 -25 21 -50 40 -25 19 -50 39 -56 45 -6 5 -29 24 -50 40
-105 82 -341 306 -479 456 -71 78 -171 199 -254 309 -39 52 -75 100 -81 107
-5 7 -10 16 -10 22 0 5 -3 11 -7 13 -5 2 -20 21 -34 43 -78 118 -119 185 -119
194 0 5 -3 11 -8 13 -20 9 -200 370 -263 528 -44 111 -115 318 -122 360 -3 14
-10 37 -15 51 -6 14 -13 39 -16 55 -3 16 -11 55 -19 87 -8 31 -12 57 -9 57 2
0 -1 6 -7 13 -6 8 -8 16 -6 19 3 3 1 25 -4 49 -5 24 -12 87 -15 139 -4 52 -8
131 -11 175 -14 211 -23 555 -16 555 3 0 17 -19 31 -42z m266 -2578 c20 -30
40 -57 43 -60 4 -3 14 -17 23 -32 10 -14 48 -65 85 -111 38 -47 80 -100 95
-119 29 -37 32 -40 153 -173 253 -279 593 -576 875 -765 36 -24 67 -47 68 -52
2 -4 8 -8 13 -8 6 0 36 -17 67 -38 67 -45 213 -131 327 -192 44 -23 87 -49 96
-56 8 -8 19 -14 23 -14 4 0 12 -5 19 -10 7 -6 48 -36 92 -67 141 -99 322 -266
420 -388 22 -28 43 -52 46 -55 13 -12 149 -208 149 -215 0 -5 6 -16 14 -24 37
-42 161 -308 210 -450 14 -42 14 -48 -6 -100 -11 -31 -25 -73 -31 -93 -6 -21
-15 -38 -19 -38 -4 0 -8 -6 -8 -14 0 -8 -5 -27 -12 -43 -6 -15 -12 -30 -13
-33 -1 -3 -9 -22 -18 -44 -9 -21 -17 -40 -17 -42 0 -5 -94 -231 -120 -289 -10
-22 -36 -80 -58 -130 -66 -148 -121 -267 -152 -325 l-29 -55 -148 -1 c-81 0
-153 1 -159 3 -8 3 -11 230 -10 789 1 513 -2 788 -9 793 -8 6 -380 8 -445 2
-13 -1 -15 -96 -15 -793 l0 -793 -158 0 -158 0 -17 30 c-10 16 -25 48 -34 70
-9 22 -34 78 -56 125 -114 245 -327 768 -432 1060 -34 96 -66 184 -71 195 -5
11 -40 117 -79 235 -39 118 -80 243 -91 276 -11 34 -21 68 -23 75 -1 8 -5 19
-8 25 -4 6 -9 21 -11 35 -3 13 -19 71 -37 129 -17 58 -33 114 -35 124 -3 10
-9 33 -15 50 -14 42 -103 376 -115 430 -2 12 -8 37 -14 56 -17 67 -103 443
-121 530 -5 25 -12 56 -15 70 -3 14 -12 59 -20 100 -8 41 -16 84 -18 95 -12
58 -20 102 -23 123 -1 13 -7 45 -13 70 -5 26 -12 65 -15 87 -3 22 -8 56 -12
75 -8 42 -6 41 42 -30z"/>
</g>
</svg>
